<svg xmlns="http://www.w3.org/2000/svg" width="14" height="9" viewBox="0 0 14 9" fill="none">
  <path d="M0.344765 0.837496C0.235521 0.943564 0.148811 1.06976 0.0896384 1.20879C0.0304655 1.34783 0 1.49696 0 1.64758C0 1.7982 0.0304655 1.94733 0.0896384 2.08637C0.148811 2.22541 0.235521 2.3516 0.344765 2.45767L6.17247 8.1625C6.28082 8.26944 6.40973 8.35433 6.55176 8.41225C6.69379 8.47018 6.84614 8.5 7 8.5C7.15387 8.5 7.30621 8.47018 7.44824 8.41225C7.59027 8.35433 7.71918 8.26944 7.82753 8.1625L13.6552 2.45767C13.7645 2.3516 13.8512 2.22541 13.9104 2.08637C13.9695 1.94733 14 1.7982 14 1.64758C14 1.49696 13.9695 1.34783 13.9104 1.20879C13.8512 1.06976 13.7645 0.943564 13.6552 0.837496C13.5469 0.730556 13.418 0.645674 13.2759 0.587749C13.1339 0.529823 12.9816 0.5 12.8277 0.5C12.6738 0.5 12.5215 0.529823 12.3795 0.587749C12.2374 0.645674 12.1085 0.730556 12.0002 0.837496L7 5.74365L1.99983 0.837496C1.89148 0.730556 1.76257 0.645674 1.62054 0.587749C1.47851 0.529823 1.32616 0.5 1.1723 0.5C1.01843 0.5 0.866091 0.529823 0.724059 0.587749C0.582027 0.645674 0.453117 0.730556 0.344765 0.837496Z" fill="white"/>
</svg>