<svg xmlns="http://www.w3.org/2000/svg" width="228" height="55" viewBox="0 0 228 55" fill="none">
  <path d="M61.9551 11.2236C64.0997 14.2802 66.4213 17.2846 68.7464 20.2296V11.2236H72.4882V26.4651H68.9542L62.0929 17.5969V26.4651H58.3511V11.2236H61.9551Z" fill="#171717"/>
  <path d="M119.613 46.07C119.189 49.6479 115.033 50.8806 111.959 50.535C111.315 50.4626 108.108 49.5838 107.991 48.9616C107.965 48.8215 109.146 46.4702 109.306 46.4239C109.729 46.4702 110.015 46.7837 110.43 46.9369C112.937 47.8643 116.272 47.7658 115.664 44.1997C113.99 45.9881 111.154 45.9869 109.291 44.4729C106.504 42.2071 106.727 36.3931 110.095 34.7532C112.08 33.7854 114.119 34.1749 115.731 35.6082C115.779 35.4538 115.67 34.3613 115.732 34.3613H119.613V46.07ZM112.783 37.304C110.38 37.7481 110.368 42.3235 113.041 42.6631C116.693 43.1274 116.765 36.5689 112.783 37.304Z" fill="#171717"/>
  <path d="M205.268 46.0704C204.827 49.6258 200.697 50.8821 197.614 50.5354C196.97 50.4629 193.763 49.583 193.646 48.9619C193.62 48.8218 194.801 46.4706 194.962 46.4243C195.384 46.4694 195.67 46.7841 196.085 46.9373C198.675 47.8932 201.791 47.7745 201.386 44.2001C198.89 46.6345 194.888 45.7035 193.525 42.5685C192.914 41.1637 192.875 38.9454 193.38 37.5109C194.602 34.0399 198.7 33.198 201.386 35.6098C201.435 35.4554 201.325 34.3629 201.387 34.3629H205.268V46.0704ZM198.301 37.3031C197.359 37.4955 196.752 38.6735 196.677 39.5582C196.345 43.4947 201.107 43.6812 201.386 40.3871C201.559 38.3469 200.476 36.8578 198.301 37.3019V37.3031Z" fill="#171717"/>
  <path d="M70.409 30.8984V34.0156C70.409 34.0299 70.2154 34.2234 70.2012 34.2234H62.3696V36.7872C62.3696 36.8015 62.5632 36.995 62.5774 36.995H69.5765V40.1823H62.3696V42.9539H70.4779C70.4921 42.9539 70.6857 43.1474 70.6857 43.1617V45.9333C70.6857 45.9796 70.5016 46.1435 70.5467 46.28H58.35V30.8996H70.4078L70.409 30.8984Z" fill="#171717"/>
  <path d="M109.217 26.4635H105.405C105.116 26.4635 105.199 25.4459 105.196 25.2167C102.33 28.0453 97.6215 26.5158 96.5836 22.6742C95.022 16.8959 100.045 12.0485 105.198 15.9328V10.5986C105.198 10.5737 105.519 10.2519 105.544 10.2519H109.01C109.024 10.2519 109.217 10.4454 109.217 10.4597V26.4635ZM101.09 22.9497C101.67 23.515 102.404 23.6337 103.19 23.5542C106.188 23.249 106.132 17.2759 102.369 17.7473C100.1 18.0323 99.601 21.4974 101.09 22.9497Z" fill="#171717"/>
  <path d="M133.058 18.4278C133.658 18.1368 136.468 14.6872 136.73 14.6872H141.097L136.937 19.3267L141.097 26.4647H136.523C136.203 25.9648 134.492 22.4439 134.289 22.3251C133.991 22.1518 133.058 23.1291 133.058 23.2086V26.4647H129.038V10.4609C129.038 10.4466 129.231 10.2531 129.246 10.2531H132.85C132.864 10.2531 133.058 10.4466 133.058 10.4609V18.4278Z" fill="#171717"/>
  <path d="M76.5079 34.3608V36.0233C78.6739 33.2255 83.7065 33.6685 84.4855 37.4008C84.8702 39.2437 84.8453 43.5698 84.6921 45.5208C84.6707 45.788 84.6113 46.022 84.5472 46.2761H80.8743C80.86 46.2761 80.6665 46.0825 80.6665 46.0683V39.2794C80.6665 39.1951 80.347 38.5621 80.2544 38.4434C79.3982 37.3521 77.5671 37.7131 76.8606 38.7996C76.7893 38.9089 76.5079 39.4979 76.5079 39.5561V46.0683C76.5079 46.0825 76.3143 46.2761 76.3001 46.2761H72.696C72.6818 46.2761 72.4882 46.0825 72.4882 46.0683V34.5686C72.4882 34.5543 72.6818 34.3608 72.696 34.3608H76.5079Z" fill="#171717"/>
  <path d="M162.925 34.3614C163.293 34.4754 163.08 35.6819 163.134 36.0239C165.344 33.2891 170.124 33.6287 171.105 37.2684C171.144 37.4133 171.31 38.2338 171.31 38.3098V46.0689C171.31 46.0832 171.117 46.2767 171.102 46.2767H167.498C167.484 46.2767 167.291 46.0832 167.291 46.0689V39.1411C167.291 39.1007 166.952 38.5473 166.875 38.4488C165.989 37.3159 164.12 37.7303 163.43 38.8846C163.375 38.976 163.132 39.5199 163.132 39.5567V46.0689C163.132 46.0832 162.938 46.2767 162.924 46.2767H159.32C159.306 46.2767 159.112 46.0832 159.112 46.0689V34.5692C159.112 34.555 159.306 34.3614 159.32 34.3614C160.036 34.3614 162.456 34.2165 162.924 34.3614H162.925Z" fill="#171717"/>
  <path d="M183.646 46.2783H179.973C179.959 46.2783 179.765 46.0847 179.765 46.0705V34.363H183.646V35.8866C183.749 36.0077 184.981 34.8677 185.212 34.7501C187.117 33.7847 189.772 34.0744 191.052 35.8961C191.254 36.1834 191.823 37.4766 191.823 37.758V46.0717C191.823 46.0859 191.629 46.2795 191.615 46.2795H188.15C188.136 46.2795 187.942 46.0859 187.942 46.0717V39.4205C187.942 39.3481 187.541 38.5014 187.452 38.3862C186.732 37.4612 185 37.6619 184.266 38.5157C184.064 38.7508 183.646 39.5797 183.646 39.8362V46.2795V46.2783Z" fill="#171717"/>
  <path d="M214.485 46.2779C214.108 46.1603 214.389 45.1628 214.206 45.1676C212.097 47.0664 207.694 46.9357 206.833 43.8114C206.356 42.0789 206.941 40.357 208.607 39.5709C208.873 39.445 209.966 39.0722 210.188 39.0722H214.068C214.575 39.0722 213.989 37.8004 213.405 37.5189C211.779 36.734 210.018 37.7766 208.472 38.0854C208.362 37.6875 207.35 35.6866 207.494 35.4812C210.274 34.1916 215.378 33.1596 217.438 36.1177C217.785 36.6152 218.157 37.5795 218.157 38.1709V46.0689C218.157 46.0831 217.963 46.2767 217.949 46.2767C217.259 46.2767 214.933 46.4156 214.484 46.2767L214.485 46.2779ZM214.277 41.1503H211.575C210.133 41.1503 209.706 43.6594 211.874 43.7295C213.426 43.7794 214.581 42.7653 214.277 41.1503Z" fill="#171717"/>
  <path d="M85.0518 16.1206C86.3771 17.3128 87.0195 19.3719 86.9008 21.1271C86.3747 28.8529 73.1496 28.5905 74.0141 19.7448C74.5223 14.5483 81.5582 12.9773 85.0518 16.1206ZM79.9361 17.7676C77.25 18.2189 77.2156 22.9297 79.8257 23.4914C83.9202 24.3725 84.0579 17.0753 79.9361 17.7676Z" fill="#171717"/>
  <path d="M139.54 34.2621C144.145 33.742 147.819 37.1691 146.743 41.8787C145.34 48.03 134.852 47.821 134.066 41.3206C133.61 37.5479 135.732 34.692 139.54 34.2621ZM138.665 38.1619C137.443 39.5809 137.661 42.6945 139.7 43.1695C142.187 43.749 143.492 41.3562 142.836 39.2033C142.294 37.4233 139.91 36.7131 138.665 38.1619Z" fill="#171717"/>
  <path d="M152.738 26.4631H149.065C148.697 26.4631 149.047 25.3219 148.651 25.4941C145.853 27.9914 140.781 26.6222 141.384 22.2486C141.579 20.8379 143.384 19.3963 144.767 19.3963H148.856C148.95 16.9263 145.925 17.5082 144.346 18.0057C143.998 18.115 143.47 18.5555 143.172 18.3667C142.913 18.2029 142.307 16.196 142.065 15.797C144.703 14.6273 149.702 13.5443 151.84 16.0677C152.116 16.3931 152.738 17.564 152.738 17.9416V26.4631ZM148.996 21.4756H146.017C145.089 21.4756 144.567 23.1108 145.536 23.7568C146.987 24.7246 149.458 23.3625 148.996 21.4756Z" fill="#171717"/>
  <path d="M90.0215 41.2893C89.3589 41.4722 90.6984 42.9423 91.0974 43.1228C91.7648 43.4245 92.8965 43.4209 93.5876 43.1917C94.0471 43.0397 94.9378 42.1918 95.2596 42.2738C95.4187 42.3142 97.1762 44.0978 97.1489 44.2486C95.6099 46.0761 93.0152 46.5155 90.7281 46.2626C83.7326 45.4883 84.0199 33.7868 92.3835 34.2166C96.4292 34.4244 98.1286 37.5416 97.9908 41.2893H90.0215ZM89.8826 39.3502C90.4277 39.5117 93.0924 39.3502 93.9023 39.3502C94.3666 39.3502 93.9462 38.1021 93.7574 37.8314C93.0295 36.7899 91.3242 36.7591 90.4158 37.5974C90.1344 37.8575 89.3245 39.1839 89.8826 39.3502Z" fill="#171717"/>
  <path d="M151.521 37.2992C151.44 37.4405 151.466 37.7113 151.517 37.8656C151.838 38.8239 156.391 38.913 157.338 41.193C157.984 42.7451 157.469 44.4669 156.133 45.4454C154.118 46.9227 149.821 46.532 147.841 45.145C146.653 44.3125 148.294 43.3744 148.304 42.2582C148.496 42.0896 149.948 42.9909 150.286 43.1167C150.981 43.3756 153.327 43.9729 153.784 43.2307C153.932 42.9897 153.823 42.5634 153.609 42.39C152.969 41.8699 150.837 41.5326 149.934 41.1122C146.676 39.5958 147.272 35.5429 150.585 34.4943C151.625 34.1654 152.93 34.1203 154.019 34.2568C154.543 34.3222 157.298 35.1297 157.437 35.5607C157.533 35.8588 156.463 38.0343 156.253 38.0936C155.443 37.7053 152.073 36.3302 151.521 37.2968V37.2992Z" fill="#171717"/>
  <path d="M126.115 18.4176C124.835 18.0483 123.099 16.9154 121.685 17.3809C120.86 17.6529 121.285 18.3654 121.916 18.6872C123.793 19.6419 127.043 19.5232 127.357 22.391C127.878 27.1255 121.445 27.3309 118.361 25.8442C118.103 25.7195 117.286 25.2873 117.182 25.0795C116.969 24.6567 117.963 23.0904 118.172 22.5738C118.508 22.5026 119.467 23.1747 119.891 23.3445C120.862 23.734 122.066 24.0297 123.115 23.8005C123.742 23.664 123.807 23.031 123.345 22.6617C122.666 22.119 120.256 21.7675 119.191 21.1334C116.569 19.5707 117.242 16.0118 119.932 14.9371C121.749 14.2115 125.282 14.5108 126.917 15.6258C127.759 16.2006 126.212 17.5852 126.114 18.4164L126.115 18.4176Z" fill="#171717"/>
  <path d="M132.364 30.0663V46.0701C132.364 46.0844 132.17 46.2779 132.156 46.2779H128.691C128.677 46.2779 128.483 46.0844 128.483 46.0701V30.0663H132.364Z" fill="#171717"/>
  <path d="M227.999 34.2225V37.8254C226.372 37.6663 224.432 38.2422 224.25 40.1042C224.056 42.079 224.517 44.3091 224.118 46.2768H220.445C220.431 46.2768 220.237 46.0832 220.237 46.069V34.3615H224.049C224.422 34.3615 224.143 35.7544 224.326 36.024C225.133 34.8519 226.557 34.1525 228 34.2237L227.999 34.2225Z" fill="#171717"/>
  <path d="M107.138 34.2225V37.8254C106.139 37.7197 104.722 37.9596 103.997 38.7029C103.906 38.7967 103.396 39.6375 103.396 39.6957V46.0689C103.396 46.0832 103.203 46.2768 103.188 46.2768H99.5844C99.5702 46.2768 99.3766 46.0832 99.3766 46.0689V34.5693C99.3766 34.555 99.5702 34.3614 99.5844 34.3614H103.188C103.561 34.3614 103.283 35.7544 103.465 36.0239C104.393 34.8958 105.643 34.1916 107.139 34.2237L107.138 34.2225Z" fill="#171717"/>
  <path d="M96.0505 14.5479V18.1508C94.9449 18.0498 93.3774 18.3277 92.7219 19.3264C92.6483 19.4392 92.3075 20.2455 92.3075 20.2978V26.4632H88.4268V14.6857H92.3075L92.3764 16.3482C93.3038 15.22 94.5542 14.5159 96.0505 14.5479Z" fill="#171717"/>
  <path d="M125.849 34.3613V46.2778H122.176C122.162 46.2778 121.969 46.0843 121.969 46.07V34.3625H125.849V34.3613Z" fill="#171717"/>
  <path d="M177.27 34.3613V46.2778H173.597C173.583 46.2778 173.39 46.0843 173.39 46.07V34.3625H177.27V34.3613Z" fill="#171717"/>
  <path d="M111.851 26.4631V14.6855H115.524C115.538 14.6855 115.732 14.8791 115.732 14.8934V26.2553C115.732 26.2695 115.538 26.4631 115.524 26.4631H111.851Z" fill="#171717"/>
  <path d="M123.455 28.9906C126.726 28.3873 127.027 33.6717 123.433 33.1052C121.323 32.7727 121.307 29.3872 123.455 28.9906Z" fill="#171717"/>
  <path d="M174.877 28.9899C178.16 28.3842 178.423 33.6674 174.855 33.1045C172.745 32.772 172.729 29.3865 174.877 28.9899Z" fill="#171717"/>
  <path d="M112.177 12.8375C111.618 12.2461 111.502 10.9339 111.926 10.2594C113.311 8.05661 116.854 9.77967 115.575 12.3838C114.957 13.6438 113.109 13.8266 112.177 12.8375Z" fill="#171717"/>
  <path d="M141.281 29.9753C142.814 28.3698 145.358 30.7709 143.804 32.4286C142.297 34.0389 139.675 31.6544 141.281 29.9753Z" fill="#171717"/>
  <path d="M137.868 29.5421C140.46 28.9483 140.865 32.9122 138.37 32.9264C136.233 32.9383 136.19 29.9268 137.868 29.5421Z" fill="#171717"/>
  <path d="M10.3253 25.2164C10.7361 24.1014 10.9629 22.8664 11.3976 21.7157C11.5519 21.3072 12.1789 20.4332 11.9961 20.0912L3.18842 13.8557L13.294 18.2815C14.073 16.7187 15.5502 15.6144 16.6344 14.3425L11.0888 4.98866L18.4988 13.0221L23.1288 10.8584L21.9009 0.138937L25.4504 10.5212C27.1105 10.1614 28.7932 10.2326 30.4735 10.3716L33.7498 0L32.7107 9.90726L32.7285 10.7183C32.8045 10.9428 34.5371 11.4118 34.9242 11.5698C35.2769 11.7146 37.3372 12.7774 37.4714 12.7382L44.6284 4.57185L39.2835 14.1359C40.579 15.1334 41.7487 16.3209 42.6892 17.6711L42.8887 17.7364L52.8043 13.1634C52.5917 13.4436 52.2485 13.7049 51.96 13.9091C49.3926 15.7295 46.8276 17.5488 44.2769 19.393C44.1023 19.5153 44.0608 19.6388 44.0928 19.8478C44.1403 20.1648 44.8623 21.4461 45.0464 21.9568C45.3409 22.7761 45.6176 23.6525 45.7423 24.517L56.5473 24.5217L46.2125 26.7305L45.899 32.1217L55.1615 36.1604L45.272 34.2378C44.4503 35.8029 43.853 37.5094 42.6999 38.8833L49.756 46.6911L41.3509 40.6099L41.1787 40.6123C40.8047 41.1573 40.1515 41.7547 39.6279 42.1774C39.23 42.498 37.1104 43.8102 37.0296 43.9456C36.7612 44.3956 40.1314 52.6843 40.3309 53.8956L35.2745 45.1651C35.1284 44.9751 34.9527 45.0274 34.7556 45.0535C32.9696 45.291 32.0231 46.8193 30.4212 44.892C28.9333 43.1013 28.6174 40.3 29.9617 38.3323C30.54 37.4856 31.4567 37.4357 32.225 36.8539C36.6627 33.4909 34.3601 26.8896 34.9349 22.0909C34.9646 21.9496 34.8351 21.6136 34.7199 21.6136H32.5718V15.7248C32.5718 15.2165 31.224 14.9244 30.7739 15.3151C30.6967 15.3816 30.3535 15.9623 30.3535 16.0027V21.6148H25.9182V15.726C25.9182 15.6951 25.5798 15.2557 25.5442 15.2344C25.1749 15.0064 24.0171 15.1405 23.9007 15.65C23.6311 17.3932 24.0467 19.4286 23.8461 21.1374C23.8294 21.2763 23.7831 21.6148 23.6311 21.6148H21.483V32.491C21.483 33.9683 23.2096 36.2435 24.4315 37.0249C25.5382 37.7326 25.9859 37.4785 26.6628 38.812C27.7232 40.9056 27.3349 43.5834 25.6475 45.2435C24.3092 46.5593 23.4316 45.3207 21.9639 45.291L16.9111 54.1735L20.0805 44.4206C18.5261 43.4599 16.98 42.4885 15.6595 41.2096L7.21046 47.3169L14.092 39.5554C13.0399 38.0651 12.1077 36.5083 11.3655 34.8375L1.10912 37.1306L10.6518 32.8164C10.3846 31.0233 10.2208 29.242 10.1946 27.424L0 25.2164H10.3253Z" fill="#EFD959"/>
</svg>