<svg xmlns="http://www.w3.org/2000/svg" width="211" height="50" viewBox="0 0 211 50" fill="none">
  <path d="M57.1821 10.3584C59.1615 13.1795 61.3042 15.9524 63.4502 18.6705V10.3584H66.9037V24.4257H63.642L57.3093 16.2407V24.4257H53.8557V10.3584H57.1821Z" fill="#171717"/>
  <path d="M110.398 42.5208C110.007 45.8231 106.171 46.9608 103.334 46.6418C102.739 46.575 99.7797 45.7639 99.6712 45.1896C99.6471 45.0603 100.738 42.8902 100.886 42.8474C101.276 42.8902 101.54 43.1795 101.922 43.3209C104.236 44.1769 107.315 44.0859 106.754 40.7946C105.208 42.4452 102.591 42.4441 100.871 41.0467C98.299 38.9555 98.505 33.5894 101.613 32.0758C103.446 31.1826 105.328 31.5421 106.815 32.865C106.86 32.7225 106.759 31.7141 106.816 31.7141H110.398V42.5208ZM104.095 34.4301C101.876 34.84 101.865 39.0629 104.332 39.3764C107.703 39.8049 107.77 33.7516 104.095 34.4301Z" fill="#171717"/>
  <path d="M189.454 42.5208C189.048 45.8023 185.236 46.9619 182.39 46.6418C181.795 46.575 178.836 45.7628 178.727 45.1896C178.703 45.0603 179.794 42.8902 179.942 42.8474C180.332 42.8891 180.596 43.1795 180.979 43.3209C183.369 44.2032 186.245 44.0936 185.871 40.7946C183.567 43.0414 179.874 42.1822 178.616 39.2887C178.052 37.9921 178.016 35.9448 178.482 34.6208C179.61 31.4172 183.392 30.6401 185.871 32.8661C185.916 32.7236 185.815 31.7153 185.872 31.7153H189.454V42.5208ZM183.024 34.429C182.155 34.6065 181.595 35.6938 181.526 36.5103C181.219 40.1436 185.614 40.3157 185.871 37.2753C186.031 35.3924 185.032 34.018 183.024 34.4279V34.429Z" fill="#171717"/>
  <path d="M64.9846 28.5171V31.3941C64.9846 31.4073 64.806 31.5859 64.7928 31.5859H57.5646V33.9522C57.5646 33.9654 57.7433 34.144 57.7565 34.144H64.2163V37.0857H57.5646V39.6438H65.0482C65.0614 39.6438 65.24 39.8224 65.24 39.8356V42.3937C65.24 42.4364 65.0701 42.5877 65.1118 42.7137H53.8547V28.5182H64.9835L64.9846 28.5171Z" fill="#171717"/>
  <path d="M100.803 24.4246H97.2851C97.0177 24.4246 97.0944 23.4853 97.0922 23.2738C94.4465 25.8845 90.1008 24.4728 89.1429 20.9272C87.7016 15.594 92.3378 11.1201 97.0933 14.7052V9.7819C97.0933 9.75888 97.3904 9.46186 97.4134 9.46186H100.612C100.625 9.46186 100.803 9.64051 100.803 9.65366V24.4246ZM93.3022 21.1815C93.8371 21.7032 94.5144 21.8128 95.24 21.7394C98.0074 21.4577 97.9559 15.9448 94.4826 16.3799C92.3882 16.6429 91.9278 19.8411 93.3022 21.1815Z" fill="#171717"/>
  <path d="M122.807 17.0079C123.361 16.7394 125.955 13.5555 126.197 13.5555H130.227L126.388 17.8376L130.227 24.4257H126.005C125.71 23.9643 124.131 20.7146 123.943 20.605C123.668 20.445 122.807 21.347 122.807 21.4204V24.4257H119.097V9.65475C119.097 9.6416 119.276 9.46295 119.289 9.46295H122.615C122.628 9.46295 122.807 9.6416 122.807 9.65475V17.0079Z" fill="#171717"/>
  <path d="M70.6137 31.7142V33.2486C72.6129 30.6664 77.2577 31.0752 77.9767 34.5199C78.3318 36.221 78.3088 40.2137 78.1674 42.0145C78.1477 42.2611 78.0929 42.477 78.0337 42.7115H74.6438C74.6306 42.7115 74.452 42.5329 74.452 42.5197V36.2538C74.452 36.176 74.1571 35.5918 74.0716 35.4822C73.2814 34.475 71.5914 34.8082 70.9392 35.811C70.8735 35.9119 70.6137 36.4555 70.6137 36.5092V42.5197C70.6137 42.5329 70.4351 42.7115 70.4219 42.7115H67.0955C67.0824 42.7115 66.9037 42.5329 66.9037 42.5197V31.906C66.9037 31.8928 67.0824 31.7142 67.0955 31.7142H70.6137Z" fill="#171717"/>
  <path d="M150.374 31.7142C150.713 31.8194 150.516 32.9329 150.567 33.2486C152.606 30.7245 157.018 31.0379 157.923 34.3972C157.959 34.5309 158.113 35.2883 158.113 35.3584V42.5197C158.113 42.5329 157.934 42.7115 157.921 42.7115H154.594C154.581 42.7115 154.403 42.5329 154.403 42.5197V36.1256C154.403 36.0883 154.09 35.5776 154.019 35.4866C153.201 34.441 151.476 34.8236 150.839 35.8889C150.789 35.9733 150.564 36.4752 150.564 36.5092V42.5197C150.564 42.5329 150.386 42.7115 150.373 42.7115H147.046C147.033 42.7115 146.854 42.5329 146.854 42.5197V31.906C146.854 31.8928 147.033 31.7142 147.046 31.7142C147.707 31.7142 149.941 31.5805 150.373 31.7142H150.374Z" fill="#171717"/>
  <path d="M169.498 42.7126H166.108C166.095 42.7126 165.916 42.534 165.916 42.5208V31.7153H169.498V33.1214C169.593 33.2332 170.73 32.1811 170.944 32.0726C172.702 31.1815 175.152 31.4489 176.334 33.1302C176.52 33.3954 177.045 34.589 177.045 34.8488V42.5219C177.045 42.5351 176.866 42.7137 176.853 42.7137H173.655C173.642 42.7137 173.463 42.5351 173.463 42.5219V36.3832C173.463 36.3163 173.093 35.5349 173.011 35.4285C172.346 34.5748 170.747 34.76 170.07 35.548C169.884 35.765 169.498 36.53 169.498 36.7668V42.7137V42.7126Z" fill="#171717"/>
  <path d="M197.961 42.7126C197.613 42.6041 197.873 41.6835 197.704 41.6879C195.757 43.4404 191.693 43.3198 190.899 40.4362C190.458 38.8371 190.998 37.2479 192.536 36.5224C192.782 36.4062 193.79 36.062 193.995 36.062H197.577C198.045 36.062 197.503 34.8882 196.964 34.6285C195.464 33.904 193.838 34.8663 192.411 35.1513C192.31 34.7841 191.375 32.9373 191.509 32.7477C194.075 31.5574 198.786 30.605 200.687 33.3352C201.007 33.7944 201.35 34.6844 201.35 35.2302V42.5197C201.35 42.5329 201.172 42.7115 201.158 42.7115C200.522 42.7115 198.375 42.8398 197.96 42.7115L197.961 42.7126ZM197.77 37.9801H195.275C193.944 37.9801 193.55 40.2959 195.551 40.3606C196.984 40.4066 198.05 39.4706 197.77 37.9801Z" fill="#171717"/>
  <path d="M78.4995 14.8795C79.7227 15.9798 80.3156 17.8803 80.206 19.5002C79.7205 26.6309 67.5142 26.3887 68.3121 18.2245C68.7812 13.4283 75.2751 11.9783 78.4995 14.8795ZM73.7779 16.3996C71.2988 16.8161 71.267 21.164 73.676 21.6824C77.455 22.4956 77.5822 15.7606 73.7779 16.3996Z" fill="#171717"/>
  <path d="M128.79 31.6221C133.04 31.142 136.431 34.3051 135.438 38.6519C134.143 44.3292 124.463 44.1363 123.737 38.1368C123.316 34.6548 125.275 32.0189 128.79 31.6221ZM127.982 35.2214C126.854 36.5311 127.056 39.4049 128.938 39.8433C131.233 40.3781 132.437 38.1697 131.832 36.1826C131.332 34.5397 129.132 33.8843 127.982 35.2214Z" fill="#171717"/>
  <path d="M140.971 24.4246H137.581C137.241 24.4246 137.565 23.3713 137.199 23.5303C134.616 25.8352 129.935 24.5715 130.492 20.5349C130.672 19.2328 132.338 17.9022 133.615 17.9022H137.388C137.475 15.6225 134.683 16.1596 133.226 16.6188C132.904 16.7196 132.417 17.1263 132.142 16.952C131.903 16.8007 131.344 14.9485 131.12 14.5802C133.555 13.5007 138.169 12.5011 140.142 14.8301C140.397 15.1304 140.971 16.2111 140.971 16.5596V24.4246ZM137.517 19.8214H134.768C133.912 19.8214 133.429 21.3306 134.324 21.9268C135.663 22.82 137.944 21.5629 137.517 19.8214Z" fill="#171717"/>
  <path d="M83.0863 38.1083C82.4748 38.2771 83.7111 39.6339 84.0793 39.8005C84.6953 40.0789 85.7398 40.0756 86.3776 39.8641C86.8018 39.7238 87.6238 38.9413 87.9208 39.0169C88.0677 39.0541 89.6898 40.7004 89.6646 40.8395C88.2441 42.5263 85.8494 42.9318 83.7385 42.6984C77.2819 41.9838 77.5471 31.1837 85.2663 31.5805C89.0004 31.7723 90.5688 34.6493 90.4417 38.1083H83.0863ZM82.9581 36.3185C83.4612 36.4676 85.9206 36.3185 86.6681 36.3185C87.0966 36.3185 86.7086 35.1666 86.5344 34.9167C85.8625 33.9555 84.2887 33.927 83.4502 34.7008C83.1904 34.9408 82.443 36.1651 82.9581 36.3185Z" fill="#171717"/>
  <path d="M139.848 34.4257C139.773 34.5561 139.797 34.806 139.844 34.9485C140.14 35.833 144.342 35.9152 145.217 38.0195C145.813 39.452 145.338 41.0412 144.104 41.9443C142.245 43.3078 138.279 42.9472 136.451 41.667C135.355 40.8987 136.87 40.0329 136.878 39.0026C137.056 38.847 138.396 39.6789 138.708 39.795C139.35 40.034 141.515 40.5853 141.937 39.9003C142.074 39.6778 141.973 39.2843 141.775 39.1243C141.185 38.6442 139.216 38.333 138.383 37.945C135.376 36.5454 135.926 32.8047 138.984 31.8369C139.944 31.5333 141.149 31.4917 142.154 31.6177C142.637 31.678 145.18 32.4233 145.308 32.8211C145.397 33.0962 144.409 35.1041 144.215 35.1589C143.468 34.8005 140.357 33.5313 139.848 34.4235V34.4257Z" fill="#171717"/>
  <path d="M116.4 16.9991C115.218 16.6583 113.616 15.6127 112.31 16.0423C111.549 16.2933 111.941 16.9509 112.524 17.2479C114.256 18.1291 117.256 18.0195 117.546 20.6664C118.026 25.0362 112.089 25.2258 109.243 23.8536C109.005 23.7385 108.251 23.3395 108.154 23.1477C107.958 22.7576 108.875 21.3119 109.068 20.8352C109.379 20.7694 110.263 21.3897 110.654 21.5465C111.551 21.906 112.662 22.1789 113.63 21.9673C114.209 21.8413 114.269 21.2571 113.843 20.9163C113.216 20.4154 110.992 20.091 110.009 19.5057C107.589 18.0633 108.21 14.7786 110.693 13.7867C112.37 13.1171 115.63 13.3932 117.139 14.4224C117.916 14.9529 116.488 16.2308 116.398 16.998L116.4 16.9991Z" fill="#171717"/>
  <path d="M122.167 27.7499V42.5208C122.167 42.534 121.988 42.7126 121.975 42.7126H118.777C118.764 42.7126 118.585 42.534 118.585 42.5208V27.7499H122.167Z" fill="#171717"/>
  <path d="M210.434 31.5859V34.9112C208.932 34.7644 207.142 35.2959 206.974 37.0145C206.795 38.8371 207.22 40.8955 206.852 42.7115H203.462C203.449 42.7115 203.27 42.5329 203.27 42.5197V31.7142H206.789C207.133 31.7142 206.875 32.9998 207.044 33.2486C207.789 32.1668 209.103 31.5213 210.435 31.587L210.434 31.5859Z" fill="#171717"/>
  <path d="M98.8842 31.5859V34.9112C97.9625 34.8137 96.6538 35.0351 95.9853 35.7212C95.9009 35.8078 95.4307 36.5837 95.4307 36.6374V42.5197C95.4307 42.5329 95.2521 42.7115 95.2389 42.7115H91.9125C91.8994 42.7115 91.7207 42.5329 91.7207 42.5197V31.906C91.7207 31.8928 91.8994 31.7142 91.9125 31.7142H95.2389C95.583 31.7142 95.3266 32.9998 95.4943 33.2486C96.3502 32.2074 97.5043 31.5574 98.8853 31.587L98.8842 31.5859Z" fill="#171717"/>
  <path d="M88.6508 13.4272V16.7525C87.6304 16.6594 86.1836 16.9158 85.5787 17.8376C85.5107 17.9417 85.1961 18.6859 85.1961 18.7341V24.4246H81.6144V13.5544H85.1961L85.2597 15.0888C86.1157 14.0476 87.2698 13.3976 88.6508 13.4272Z" fill="#171717"/>
  <path d="M116.154 31.7142V42.7126H112.764C112.751 42.7126 112.572 42.534 112.572 42.5208V31.7153H116.154V31.7142Z" fill="#171717"/>
  <path d="M163.613 31.7142V42.7126H160.224C160.21 42.7126 160.032 42.534 160.032 42.5208V31.7153H163.613V31.7142Z" fill="#171717"/>
  <path d="M103.234 24.4246V13.5543H106.624C106.637 13.5543 106.816 13.733 106.816 13.7461V24.2328C106.816 24.2459 106.637 24.4246 106.624 24.4246H103.234Z" fill="#171717"/>
  <path d="M113.944 26.7569C116.963 26.2001 117.241 31.0774 113.924 30.5546C111.976 30.2477 111.962 27.123 113.944 26.7569Z" fill="#171717"/>
  <path d="M161.405 26.7569C164.434 26.1979 164.678 31.0741 161.384 30.5546C159.437 30.2477 159.422 27.123 161.405 26.7569Z" fill="#171717"/>
  <path d="M103.535 11.8479C103.019 11.302 102.912 10.091 103.303 9.46842C104.581 7.43532 107.852 9.02563 106.671 11.4292C106.1 12.5921 104.395 12.7608 103.535 11.8479Z" fill="#171717"/>
  <path d="M130.397 27.6655C131.812 26.1837 134.159 28.3998 132.726 29.9299C131.335 31.416 128.915 29.2153 130.397 27.6655Z" fill="#171717"/>
  <path d="M127.247 27.2655C129.639 26.7174 130.013 30.3759 127.71 30.3891C125.738 30.4 125.698 27.6206 127.247 27.2655Z" fill="#171717"/>
  <path d="M9.52981 23.2738C9.90903 22.2446 10.1184 21.1048 10.5195 20.0427C10.662 19.6657 11.2407 18.8591 11.0719 18.5434L2.94279 12.7883L12.2698 16.8731C12.9888 15.4307 14.3523 14.4114 15.3529 13.2376L10.2345 4.60434L17.0736 12.0189L21.347 10.0219L20.2137 0.128233L23.4897 9.71065C25.0219 9.37856 26.575 9.44432 28.1258 9.57256L31.1497 0L30.1907 9.14402L30.2071 9.89259C30.2773 10.0997 31.8764 10.5327 32.2337 10.6784C32.5592 10.8121 34.4607 11.7931 34.5846 11.7569L41.1903 4.21964L36.2571 13.0469C37.4529 13.9676 38.5324 15.0636 39.4005 16.3097L39.5846 16.37L48.7363 12.1493C48.5401 12.4079 48.2234 12.6491 47.957 12.8376C45.5874 14.5178 43.2201 16.1968 40.8658 17.8989C40.7047 18.0118 40.6664 18.1258 40.696 18.3187C40.7398 18.6114 41.4062 19.7939 41.576 20.2652C41.8479 21.0215 42.1032 21.8303 42.2183 22.6282L52.1909 22.6326L42.6523 24.6712L42.363 29.6471L50.9119 33.3746L41.7843 31.6002C41.0259 33.0447 40.4746 34.6197 39.4103 35.8878L45.9228 43.094L38.1653 37.4814L38.0063 37.4836C37.6611 37.9866 37.0583 38.5379 36.575 38.9281C36.2078 39.224 34.2514 40.4351 34.1769 40.5601C33.9292 40.9755 37.0397 48.6256 37.2238 49.7435L32.557 41.6857C32.4222 41.5103 32.26 41.5585 32.078 41.5826C30.4296 41.8018 29.5561 43.2124 28.0776 41.4336C26.7043 39.7808 26.4127 37.1953 27.6534 35.3792C28.1872 34.5978 29.0333 34.5517 29.7424 34.0147C33.8382 30.9108 31.7131 24.8181 32.2435 20.3891C32.2709 20.2587 32.1515 19.9485 32.0451 19.9485H30.0625V14.5134C30.0625 14.0443 28.8185 13.7747 28.4031 14.1352C28.3319 14.1966 28.0151 14.7326 28.0151 14.7698V19.9496H23.9215V14.5145C23.9215 14.486 23.6092 14.0804 23.5763 14.0607C23.2354 13.8503 22.1668 13.9741 22.0594 14.4443C21.8106 16.0533 22.1942 17.9318 22.009 19.509C21.9936 19.6372 21.9509 19.9496 21.8106 19.9496H19.8279V29.9879C19.8279 31.3514 21.4215 33.4513 22.5493 34.1725C23.5708 34.8257 23.984 34.5912 24.6087 35.822C25.5875 37.7543 25.2291 40.2258 23.6716 41.758C22.4364 42.9724 21.6265 41.8292 20.2718 41.8018L15.6083 50L18.5335 40.9985C17.0989 40.1118 15.6718 39.2153 14.4531 38.0349L6.65497 43.6716L13.0064 36.5081C12.0353 35.1326 11.1749 33.6957 10.4899 32.1537L1.02367 34.2701L9.83121 30.2883C9.58461 28.6333 9.43336 26.9893 9.40925 25.3113L0 23.2738H9.52981Z" fill="#E9A600"/>
</svg>